<svg id="圖層_1" data-name="圖層 1" xmlns="http://www.w3.org/2000/svg" viewBox="0 0 1193.73 183.27"><defs><style>.cls-1{fill:#fff;}.cls-2{fill:#fdc10a;}.cls-3{fill:#475c66;}</style></defs><path class="cls-1" d="M105.26,66c-.23-.76-.52-1.53-.71-2.33Q98.79,40,74.56,37.52c-10.52-1.06-21-1-31,3-7.54,3-12.18,8.38-12.75,16.86-.6,8.85,3.95,14.58,11.23,18.37,9.92,5.16,20.8,7.79,31.38,11.17C84.83,90.55,96.29,94,107.15,99c17.1,7.89,27,20.52,26,40.25-.94,18.64-11,30.84-27.69,37.27-23,8.85-46.65,8.86-69.88.91C15.1,170.38,5.06,154.5,2,133.64c-.33-2.28-.53-4.59-.82-7.19h24.2c1.19,4.18,2.17,8.51,3.67,12.66C32.9,149.77,40.41,156.57,51.53,159c15.47,3.34,30.82,3.35,45.32-3.87,15-7.45,16.17-24.13,2.83-34.36-7.59-5.82-16.79-7.84-25.59-10.73-14.65-4.83-29.4-9.33-43.88-14.7C.12,84.14-.35,45.36,20.72,29.42A65.59,65.59,0,0,1,52.21,16.61c14-1.89,27.93-1.6,41.52,2.49,20.35,6.13,31.88,20.1,35.24,41,.29,1.79.47,3.61.78,5.93Z" transform="translate(-1.19 0)"/><path class="cls-1" d="M291.62,98l-23.4-2.08C269.77,80.66,281,67.76,297.17,63a82.22,82.22,0,0,1,43.44-.85c18.13,4.52,28.5,17.69,29.05,38.66.69,26,.17,52,.17,78.32H348c-1.2-4.44.1-9.28-.81-14.66-5.91,6-11.85,11.22-19.42,14-12.33,4.54-25,5.93-37.74,2.55-12.59-3.33-22-10.74-24.84-23.92-3.06-14.46.89-27.08,13-36.4,10.9-8.4,23.77-10.93,37-11.54,10.09-.46,20.22-.09,30.14-.09C348,91.6,340.19,81.39,324,79.77a45.05,45.05,0,0,0-14.38.82C300.24,82.7,294,88.21,291.62,98Zm54,28c-11.37,0-22.81.06-34.17,1.4a30.59,30.59,0,0,0-13.55,4.7c-6.73,4.5-9.77,11-8.62,18.88,1.07,7.35,6.64,11.13,13.32,12.51C324.34,168,349.74,151.57,345.58,126Z" transform="translate(-1.19 0)"/><path class="cls-1" d="M1090.63,111.13c18.7,22.86,37,45.22,56,68.36-10.52,0-20.12,0-29.71,0-2.38,0-3.13-2.28-4.32-3.77q-17.49-22.12-34.9-44.32c-1.12-1.42-2.31-2.79-3.79-4.57-4.12,3.81-8.06,7.52-12.07,11.14-1.53,1.38-.92,3.1-.93,4.67-.06,12.12,0,24.24,0,36.63H1037V15.87h23.58v94.94c7.89-7.46,14.93-14.09,22-20.75q13.2-12.56,26.36-25.16a5.7,5.7,0,0,1,4.31-1.94c9.32.08,18.63,0,29.08,0Z" transform="translate(-1.19 0)"/><path class="cls-1" d="M573.8,128H486.44c-1.67,14.44,7.54,29.39,20.46,33.45,15.46,4.86,31.09-.77,38.07-14.37,2.2-4.28,4.65-5.55,9.17-5.22,5.78.41,11.61.1,17.49.1-4.2,21.16-21.72,37.08-43.48,40.05a70.3,70.3,0,0,1-28.24-1.38c-15.35-4.16-26.65-13.63-33.16-28-8.76-19.42-9.59-39.59-1.07-59.1,12.17-27.9,33.95-36.42,60.12-33C551.61,64,567.2,80.49,572,107.74A96.12,96.12,0,0,1,573.8,128Zm-25.66-18.42c-.6-17.72-11.88-29.23-28.75-29.78-19.35-.63-31,9.9-32.87,29.78Z" transform="translate(-1.19 0)"/><path class="cls-1" d="M248.83,179.27H225.45c-1.17-1.68-.58-3.56-.59-5.3-.16-22.33-.25-44.65-.41-67a34.11,34.11,0,0,0-.75-6.45c-2.45-12-9.34-19-20.18-20.47-13-1.77-22.64,3.16-28.39,14.66A40.26,40.26,0,0,0,171,113.06q0,30.51,0,61v5.2H147.12V15.72H171V78.78c7.41-10.5,16.39-16.8,27.93-18.25,14.7-1.85,28.8-.33,39.51,11.56,7.91,8.79,10.11,19.87,10.29,31.11C249.1,128.35,248.83,153.52,248.83,179.27Z" transform="translate(-1.19 0)"/><path class="cls-2" d="M879.81,104.46c8.43,3.27,11.13,7.18,11.14,16.18q0,23.22,0,46.44c0,9.65-5.85,15.61-15.49,15.64q-32,.1-63.92,0c-9.64,0-15.45-6-15.48-15.64q0-23.22,0-46.45c0-9,2.72-12.93,11.14-16.17l16.82-.37h39Zm-36.62,61.38c1.16,0,2.32-.07,3.48,0,4.19.29,5.9-1.48,5-5.68-.33-1.45-.39-3-.71-4.42-1-4.62-1.08-8.31,3.21-12.19,5.43-4.91,4.27-13.62-1.1-18.73a13.77,13.77,0,0,0-19-.09c-5.4,5-6.64,13.78-1.28,18.72,4.35,4,4.42,7.84,3.29,12.64-.38,1.62-.52,3.28-.8,4.92-.51,3.1.65,4.82,3.93,4.81Z" transform="translate(-1.19 0)"/><path class="cls-1" d="M1022.49,102.61H999.27c-.33-.84-.84-1.86-1.15-2.93-5.75-19.88-32.4-27.13-47.67-13-7.06,6.55-10.39,14.84-11.58,24.22-1.47,11.58-1,23,3.49,33.86,5.38,13,16.31,19.26,30.73,18,14.22-1.19,22.41-8.49,25.7-22.91.22-1,.32-1.95.52-3.17h23.36c-.39,22.25-19,42.21-41.83,45.22-8.5,1.12-17,1.31-25.34-.54-22.85-5-38.94-23.84-41.44-48.48-1.68-16.51-.59-32.63,8.17-47.34,9.16-15.39,22.84-23.87,40.62-25.43a75.31,75.31,0,0,1,23.84,1.44C1007.5,66.53,1020.22,81,1022.49,102.61Z" transform="translate(-1.19 0)"/><path class="cls-1" d="M770.37,158.4v20.7H657.83v-160h24V158.4Z" transform="translate(-1.19 0)"/><path class="cls-1" d="M414.17,179.28h-24V63.36h24V79.18c3.75-5.61,7-9.89,11.43-13.18,9.56-7.1,20-7.26,30.89-4.38,1.82.48,2.8,1.29,2.76,3.41-.11,7.13,0,14.27,0,21.55-3.62-.6-6.85-1.13-10.07-1.68-21-3.6-34.8,13.29-34.9,31.45-.11,19.15,0,38.31,0,57.46Z" transform="translate(-1.19 0)"/><path class="cls-3" d="M879.81,104.46,863,104.09c0-6.49.15-13,0-19.48a19.49,19.49,0,0,0-39,0c-.15,6.49,0,13,0,19.48l-16.82.37c.19-8.47-.82-17,.59-25.41,3.31-19.78,19.44-31.55,41-30,16,1.13,30.29,16.85,31,34.47C880,90.47,879.81,97.47,879.81,104.46Z" transform="translate(-1.19 0)"/><path class="cls-2" d="M1187.13,65.91c-6.25-.87-13-1.75-19.7-2.8-3.65-.57-5.7-2.94-5.29-6.6.43-3.9,3.13-5.84,7-5.41,6.76.75,13.48,1.74,20.2,2.74,3.88.58,5.91,3,5.54,6.9C1194.56,64.14,1191.64,66.1,1187.13,65.91Z" transform="translate(-1.19 0)"/><path class="cls-2" d="M1167,6.87a34.4,34.4,0,0,1-1.2,3.27c-2.6,5.56-5.2,11.12-7.9,16.62-1.77,3.6-4.57,5.48-8.49,3.49-3.53-1.8-4.23-4.88-2.56-8.46,2.8-6,5.56-12,8.49-18,1.47-3,4-4.52,7.38-3.47C1165.53,1.2,1167,3.37,1167,6.87Z" transform="translate(-1.19 0)"/><path class="cls-2" d="M1167.42,45c-4-.07-6-1.42-7-4-1.11-2.84-.32-5.58,2.28-6.93q10.14-5.28,20.64-9.85c2.69-1.16,5.21.21,6.78,2.77s1.43,5.28-.72,6.81C1182.35,38.9,1174.07,41.53,1167.42,45Z" transform="translate(-1.19 0)"/><path class="cls-3" d="M843.19,165.83h-4c-3.28,0-4.44-1.71-3.93-4.81.28-1.64.42-3.3.8-4.92,1.13-4.8,1.06-8.62-3.29-12.64-5.36-4.94-4.12-13.68,1.28-18.72a13.77,13.77,0,0,1,19,.09c5.37,5.11,6.53,13.82,1.1,18.73-4.29,3.88-4.21,7.57-3.21,12.19.32,1.45.38,3,.71,4.42,1,4.2-.76,6-5,5.68C845.51,165.77,844.35,165.84,843.19,165.83Z" transform="translate(-1.19 0)"/></svg>